<svg width="530" height="295" viewBox="0 0 530 295" fill="none" xmlns="http://www.w3.org/2000/svg">
<g clip-path="url(#clip0_6288_71831)">
<path d="M397.603 61.5193C388.582 67.7944 379.172 73.1213 369.532 77.5636C371.706 92.2234 371.422 107.073 368.825 121.518C362.647 155.737 343.445 187.6 312.651 209.001C281.852 230.416 245.292 237.321 211.088 231.149C183.005 226.097 156.524 212.237 136.136 190.405C107.702 201.097 77.3749 203.535 48.4237 198.325C18.9484 193.009 -9.07612 179.788 -32.2252 159.233C-40.1821 152.163 -47.5741 144.23 -54.2272 135.454C-55.6757 133.556 -57.081 131.622 -58.4472 129.666C-84.5875 92.0202 -93.0012 47.3186 -85.4797 5.50603C-77.9538 -36.3216 -54.4583 -75.2665 -16.8163 -101.443C-8.53146 -107.216 0.120255 -112.13 9.00973 -116.189C-14.6114 -150.363 -22.2012 -190.884 -15.3723 -228.8C-8.51243 -266.821 12.8111 -302.224 47.0413 -326.025C58.4867 -333.987 70.6498 -340.119 83.2044 -344.534C83.2928 -344.557 83.3662 -344.584 83.459 -344.622C86.8625 -345.807 90.2995 -346.884 93.7761 -347.819C153.601 -364.001 219.69 -342.031 257.047 -288.217C261.857 -281.275 266.011 -274.102 269.509 -266.698C288.539 -269.317 307.745 -268.877 326.447 -265.515C372.051 -257.302 414.516 -231.7 443.04 -190.621C500.093 -108.48 479.765 4.39962 397.623 61.5087L397.603 61.5193Z" fill="#199DEA"/>
</g>
<defs>
<clipPath id="clip0_6288_71831">
<rect width="520" height="561" fill="white" transform="translate(30.9443 -390.346) rotate(16.4414)"/>
</clipPath>
</defs>
</svg>
