<svg width="186" height="200" viewBox="0 0 186 200" fill="none" xmlns="http://www.w3.org/2000/svg">
<path d="M171.705 117.499C169.252 120.555 166.571 123.326 163.721 125.817C165.945 130.611 167.347 135.717 167.917 140.918C169.258 153.242 165.906 166.074 157.531 176.499C149.157 186.929 137.347 192.979 125.023 194.32C114.906 195.426 104.448 193.359 95.2689 187.951C86.6209 194.476 76.4924 198.37 66.0622 199.51C55.4421 200.666 44.5203 198.974 34.5259 194.281C31.0901 192.666 27.7605 190.7 24.5985 188.37C23.9114 187.867 23.2354 187.348 22.5706 186.817C9.82757 176.583 2.43651 162.147 0.788465 147.091C-0.85958 132.029 3.24657 116.342 13.4812 103.594C15.7326 100.784 18.1963 98.2306 20.8276 95.9457C9.29685 86.644 2.6097 73.5546 1.11808 59.901C-0.373544 46.2083 3.34713 31.9513 12.6544 20.3591C15.7661 16.482 19.308 13.158 23.1572 10.3815C23.1851 10.3647 23.2075 10.3479 23.2354 10.3256C24.2801 9.57698 25.3471 8.8619 26.4421 8.19151C45.2745 -3.37832 70.1013 -2.53475 88.3136 12.0965C90.66 13.9848 92.8052 16.0183 94.7494 18.1971C100.995 15.3815 107.61 13.5937 114.347 12.8563C130.777 11.063 147.889 15.5323 161.794 26.6999C189.604 49.0295 194.045 89.6775 171.71 117.493L171.705 117.499Z" fill="#FF7612"/>
</svg>
