<svg width="221" height="472" viewBox="0 0 221 472" fill="none" xmlns="http://www.w3.org/2000/svg">
<path d="M363.543 373.972C355.407 376.699 347.186 378.629 338.988 379.846C337.408 391.309 333.946 402.376 328.837 412.633C316.715 436.924 295.347 456.597 267.579 465.888C239.803 475.189 210.885 472.353 186.595 460.234C166.649 450.294 149.832 434.105 139.326 413.275C115.67 415.058 92.4026 410.241 71.8401 399.993C50.9079 389.55 32.7934 373.502 19.9391 353.025C15.5218 345.983 11.7167 338.418 8.6503 330.383C7.97983 328.643 7.34977 326.886 6.75353 325.121C-4.60225 291.18 -1.1252 255.835 13.6651 226.147C28.462 196.449 54.5994 172.41 88.5467 161.04C96.0211 158.528 103.582 156.741 111.135 155.647C100.907 124.86 104.087 92.8289 117.505 65.9092C130.97 38.9175 154.704 17.057 185.573 6.71959C195.896 3.26079 206.356 1.33017 216.734 0.771929C216.805 0.774122 216.866 0.769702 216.944 0.761603C219.755 0.619248 222.567 0.565104 225.378 0.626363C273.767 1.60664 318.501 32.5524 334.726 81.0683C336.813 87.3248 338.357 93.6108 339.358 99.9263C354.197 102.133 368.498 106.671 381.782 113.288C414.171 129.436 440.401 157.927 452.792 194.963C477.582 269.024 437.636 349.167 363.559 373.969L363.543 373.972Z" fill="#FFC62F"/>
</svg>
