<svg width="245" height="605" viewBox="0 0 245 605" fill="none" xmlns="http://www.w3.org/2000/svg">
<path d="M111.815 488.085C101.226 491.023 90.5833 492.937 80.017 493.94C77.2185 508.493 72.0389 522.414 64.8098 535.186C47.659 565.435 18.9984 589.152 -17.1415 599.161C-53.2906 609.182 -90.077 603.604 -120.313 586.465C-145.144 572.407 -165.549 550.568 -177.567 523.22C-207.938 523.904 -237.364 516.173 -262.961 501.679C-289.019 486.912 -311.092 465.165 -326.138 438.109C-331.308 428.805 -335.66 418.873 -339.035 408.39C-339.774 406.12 -340.46 403.83 -341.103 401.533C-353.318 357.359 -346.471 312.391 -325.541 275.42C-304.602 238.437 -269.546 209.457 -225.364 197.207C-215.636 194.499 -205.846 192.724 -196.114 191.834C-207.101 151.77 -200.859 111.02 -181.872 77.4976C-162.821 43.8862 -130.986 17.5301 -90.8096 6.3925C-77.3749 2.66556 -63.8681 0.902297 -50.5597 0.888638C-50.4687 0.896254 -50.3904 0.894718 -50.2902 0.889617C-46.6864 0.897223 -43.0866 1.01774 -39.4966 1.28575C22.3137 5.80468 77.4141 48.4002 94.8655 111.542C97.1085 119.685 98.6558 127.828 99.5075 135.973C118.333 139.797 136.312 146.564 152.849 155.924C193.168 178.761 224.773 216.969 238.102 265.17C264.771 361.56 208.246 461.36 111.837 488.081L111.815 488.085Z" fill="#3FBC43"/>
</svg>
