<svg width="389" height="198" viewBox="0 0 389 198" fill="none" xmlns="http://www.w3.org/2000/svg">
<g clip-path="url(#clip0_6288_50903)">
<path d="M121.72 30.82C116.32 30.82 111.28 31.41 106.58 32.58C101.89 33.75 97.6299 35.48 93.8199 37.77C90.5499 39.73 87.6099 42.1 84.9899 44.88C82.4899 42.18 79.6299 39.83 76.3999 37.86C68.7099 33.17 59.3599 30.82 48.3299 30.82C40.5899 30.82 33.7199 32.02 27.7399 34.43C21.7599 36.84 16.7099 40.39 12.5999 45.08C8.48992 49.77 5.34992 55.52 3.17992 62.33C1.00992 69.14 -0.0800781 76.94 -0.0800781 85.74V151.91H27.0199V85.03C27.0199 75.76 28.8699 68.84 32.5599 64.26C36.2599 59.68 41.8599 57.4 49.3699 57.4C56.8799 57.4 62.2799 59.75 65.9099 64.44C69.5499 69.13 71.3699 76.35 71.3699 86.09V151.91H98.2999V86.09C98.2999 76.47 100.12 69.28 103.76 64.53C107.4 59.78 112.97 57.4 120.48 57.4C124.23 57.4 127.49 57.99 130.25 59.16C133.01 60.33 135.29 62.06 137.11 64.35C138.93 66.64 140.31 69.51 141.25 72.97C142.19 76.43 142.66 80.45 142.66 85.03V151.91H170.29V85.74C170.29 68.14 166.09 54.59 157.71 45.09C149.32 35.59 137.32 30.83 121.72 30.83V30.82Z" fill="#0F0F0F"/>
<path d="M222.56 60.74H196.16V151.91H222.56V60.74Z" fill="#0F0F0F"/>
<path d="M300 58.19C298 57.9 295.83 57.75 293.49 57.75C279.17 57.75 268.15 62.12 260.4 70.86C252.66 79.6 248.78 91.95 248.78 107.91V151.91H275.18V108.79C275.18 104.45 275.65 100.64 276.59 97.35C277.53 94.07 278.97 91.31 280.9 89.08C282.84 86.85 285.18 85.18 287.94 84.06C290.7 82.95 293.89 82.39 297.53 82.39C299.29 82.39 300.84 82.51 302.19 82.74C303.54 82.98 304.8 83.33 305.97 83.8V59.51C303.97 58.92 301.98 58.48 299.99 58.19H300Z" fill="#0F0F0F"/>
<path d="M222.19 26.86C221.59 27.24 220.97 27.55 220.34 27.81C220.44 28.76 220.38 29.71 220.17 30.63C219.68 32.81 218.35 34.79 216.32 36.08C214.28 37.37 211.92 37.7 209.74 37.21C207.95 36.81 206.29 35.84 205.05 34.38C203.2 34.98 201.24 35.05 199.4 34.64C197.52 34.21 195.76 33.29 194.34 31.9C193.85 31.42 193.4 30.89 193 30.31C192.91 30.18 192.83 30.06 192.75 29.93C191.18 27.44 190.77 24.55 191.37 21.89C191.97 19.23 193.59 16.8 196.08 15.23C196.63 14.88 197.2 14.59 197.78 14.36C196.36 12.1 195.99 9.48 196.54 7.07C197.09 4.65 198.56 2.44 200.82 1.02C201.58 0.54 202.37 0.179998 203.19 -0.0600022C203.19 -0.0600022 203.2 -0.0600022 203.21 -0.0600022C203.43 -0.130002 203.66 -0.19001 203.88 -0.24001C207.76 -1.11001 211.94 0.489998 214.18 4.05C214.47 4.51 214.71 4.98 214.92 5.47C216.15 5.36 217.38 5.44 218.57 5.71C221.47 6.37 224.12 8.13 225.84 10.85C229.27 16.28 227.64 23.46 222.21 26.89L222.19 26.86Z" fill="#0F0F0F"/>
<path d="M162.2 185.57C162.2 184.3 162.05 183.12 161.74 182.03C161.43 180.94 160.96 180.01 160.31 179.22C159.66 178.44 158.84 177.82 157.85 177.37C156.86 176.92 155.69 176.69 154.34 176.69C152.99 176.69 151.84 176.92 150.87 177.39C149.9 177.85 149.1 178.48 148.45 179.26C147.8 180.04 147.32 180.97 147.02 182.05C146.71 183.13 146.56 184.3 146.56 185.57V197.86H142.45V185.53C142.45 183.65 142.71 181.92 143.22 180.34C143.73 178.76 144.49 177.4 145.5 176.27C146.5 175.13 147.75 174.24 149.24 173.59C150.73 172.94 152.44 172.62 154.38 172.62C156.32 172.62 158.06 172.94 159.55 173.59C161.04 174.24 162.29 175.13 163.29 176.27C164.29 177.41 165.06 178.77 165.58 180.34C166.11 181.92 166.37 183.65 166.37 185.53V197.86H162.19V185.57H162.2ZM144.48 186.75H164.48V190.46H144.48V186.75Z" fill="#0F0F0F"/>
<path d="M175.23 172.29H179.16V197.87H175.23V172.29ZM177.4 186.46H187.53C188.75 186.46 189.84 186.57 190.78 186.79C191.72 187.01 192.5 187.37 193.13 187.85C193.75 188.34 194.22 188.98 194.54 189.78C194.86 190.58 195.02 191.54 195.02 192.66V196.22C195.02 196.51 195.03 196.8 195.06 197.06C195.08 197.33 195.12 197.6 195.17 197.87H191.28C191.23 197.6 191.19 197.36 191.17 197.15C191.15 196.94 191.13 196.69 191.13 196.4V193.35C191.13 192.13 190.82 191.18 190.21 190.52C189.6 189.86 188.66 189.53 187.38 189.53H177.4V186.45V186.46ZM190.76 178.86H194.65L189.73 188.11L186.13 188.07L190.75 178.86H190.76Z" fill="#0F0F0F"/>
<path d="M221.55 190.68C221.35 191.71 220.99 192.67 220.47 193.58C219.94 194.49 219.27 195.27 218.45 195.95C217.63 196.62 216.69 197.15 215.64 197.53C214.59 197.91 213.45 198.1 212.23 198.1C210.86 198.1 209.61 197.86 208.47 197.38C207.33 196.9 206.36 196.24 205.55 195.4C204.74 194.56 204.11 193.54 203.66 192.35C203.21 191.16 202.98 189.87 202.98 188.48C202.98 186.99 203.24 185.62 203.75 184.37C204.26 183.12 204.99 182.05 205.92 181.14C206.85 180.24 207.96 179.53 209.26 179.01C210.56 178.5 211.98 178.24 213.52 178.24C215.06 178.24 216.46 178.5 217.72 179.01C218.98 179.52 220.06 180.26 220.95 181.23C221.84 182.2 222.53 183.36 223.01 184.72C223.49 186.08 223.73 187.61 223.73 189.33V197.88H220.1V192.41L219.81 191.68V188.96C219.81 187.88 219.66 186.92 219.35 186.06C219.04 185.2 218.62 184.47 218.08 183.86C217.54 183.25 216.88 182.78 216.1 182.47C215.32 182.15 214.45 181.99 213.49 181.99C212.53 181.99 211.62 182.15 210.81 182.47C210 182.79 209.31 183.24 208.74 183.81C208.17 184.38 207.72 185.08 207.4 185.88C207.08 186.69 206.92 187.57 206.92 188.52C206.92 189.47 207.07 190.26 207.36 191.02C207.65 191.78 208.07 192.42 208.61 192.95C209.15 193.48 209.8 193.89 210.55 194.18C211.31 194.47 212.15 194.62 213.08 194.62C214.08 194.62 215.03 194.44 215.91 194.09C216.79 193.74 217.6 193.22 218.33 192.55C219.06 191.88 219.7 191.06 220.24 190.09C220.78 189.12 221.22 188 221.56 186.73V190.69L221.55 190.68Z" fill="#0F0F0F"/>
<path d="M252.78 172.29V187.45C252.78 189.14 252.54 190.67 252.05 192.04C251.56 193.41 250.87 194.58 249.98 195.55C249.09 196.52 248.01 197.26 246.75 197.77C245.49 198.28 244.09 198.54 242.55 198.54C241.01 198.54 239.59 198.28 238.29 197.77C236.99 197.26 235.89 196.54 234.97 195.62C234.05 194.7 233.34 193.6 232.82 192.32C232.3 191.04 232.05 189.64 232.05 188.12C232.05 186.7 232.27 185.4 232.71 184.23C233.15 183.06 233.77 182.05 234.58 181.2C235.39 180.36 236.35 179.7 237.46 179.24C238.57 178.78 239.81 178.54 241.19 178.54C242.24 178.54 243.25 178.69 244.22 178.98C245.19 179.27 246.07 179.69 246.88 180.23C247.69 180.77 248.39 181.42 248.99 182.17C249.59 182.93 250.05 183.77 250.37 184.7L250.15 188.48C249.46 186.47 248.43 184.92 247.05 183.82C245.67 182.72 244.06 182.17 242.22 182.17C241.27 182.17 240.41 182.32 239.65 182.61C238.89 182.9 238.24 183.32 237.69 183.86C237.14 184.4 236.72 185.04 236.42 185.79C236.13 186.54 235.98 187.36 235.98 188.27C235.98 189.25 236.14 190.13 236.46 190.91C236.78 191.69 237.22 192.37 237.8 192.95C238.37 193.53 239.07 193.97 239.89 194.29C240.71 194.61 241.61 194.77 242.59 194.77C243.57 194.77 244.41 194.62 245.2 194.31C245.98 194 246.64 193.55 247.18 192.95C247.72 192.35 248.13 191.62 248.43 190.75C248.72 189.88 248.87 188.9 248.87 187.8V172.31H252.8L252.78 172.29Z" fill="#0F0F0F"/>
<path d="M268.67 182.09C267.86 182.41 267.17 182.85 266.6 183.43C266.03 184.01 265.58 184.7 265.26 185.52C264.94 186.34 264.78 187.25 264.78 188.25C264.78 189.25 264.94 190.16 265.26 190.98C265.58 191.8 266.02 192.5 266.6 193.09C267.17 193.68 267.87 194.14 268.69 194.47C269.51 194.8 270.41 194.97 271.39 194.97C272.44 194.97 273.45 194.79 274.4 194.42C275.35 194.05 276.21 193.53 276.97 192.84L278.8 195.67C277.82 196.6 276.69 197.31 275.41 197.8C274.13 198.29 272.75 198.53 271.28 198.53C269.81 198.53 268.42 198.28 267.17 197.78C265.92 197.28 264.85 196.58 263.96 195.69C263.07 194.8 262.37 193.73 261.87 192.48C261.37 191.23 261.12 189.86 261.12 188.37C261.12 186.88 261.37 185.51 261.87 184.28C262.37 183.04 263.07 181.98 263.96 181.09C264.85 180.2 265.94 179.5 267.21 179C268.48 178.5 269.86 178.25 271.36 178.25C272.68 178.25 273.9 178.44 275.03 178.82C276.16 179.2 277.15 179.74 278 180.45C278.86 181.16 279.57 182.02 280.13 183.04C280.69 184.06 281.07 185.19 281.27 186.43L263.91 191.75L263.21 188.92L278.92 184.15L277.75 186.28C277.58 185.57 277.3 184.93 276.92 184.35C276.54 183.78 276.07 183.29 275.51 182.88C274.95 182.48 274.32 182.16 273.62 181.94C272.92 181.72 272.17 181.61 271.36 181.61C270.38 181.61 269.49 181.77 268.68 182.09H268.67Z" fill="#0F0F0F"/>
<path d="M302.51 197.87V188.18C302.51 187.2 302.42 186.33 302.25 185.56C302.08 184.79 301.8 184.14 301.41 183.6C301.02 183.06 300.52 182.65 299.91 182.37C299.3 182.09 298.54 181.95 297.63 181.95C296.77 181.95 296.03 182.08 295.41 182.35C294.79 182.62 294.28 183.01 293.89 183.51C293.5 184.01 293.2 184.63 293.01 185.36C292.81 186.09 292.72 186.94 292.72 187.89V197.87H289.01V187.96C289.01 186.49 289.19 185.16 289.56 183.96C289.93 182.76 290.47 181.73 291.19 180.88C291.91 180.02 292.81 179.37 293.87 178.92C294.93 178.47 296.16 178.24 297.56 178.24C298.61 178.24 299.57 178.37 300.42 178.63C301.28 178.89 302.03 179.27 302.7 179.77C303.36 180.27 303.91 180.88 304.35 181.59C304.79 182.3 305.14 183.08 305.41 183.94H303.24C303.51 183.06 303.88 182.27 304.34 181.57C304.8 180.87 305.37 180.27 306.03 179.77C306.69 179.27 307.45 178.89 308.32 178.63C309.19 178.37 310.14 178.24 311.16 178.24C312.55 178.24 313.79 178.47 314.87 178.92C315.95 179.37 316.85 180.03 317.57 180.88C318.29 181.74 318.84 182.76 319.2 183.96C319.57 185.16 319.75 186.49 319.75 187.96V197.87H316.01V187.89C316.01 186.94 315.92 186.09 315.73 185.36C315.55 184.63 315.25 184 314.85 183.49C314.45 182.98 313.94 182.59 313.33 182.33C312.72 182.07 311.97 181.94 311.09 181.94C310.21 181.94 309.46 182.08 308.83 182.36C308.21 182.64 307.7 183.05 307.33 183.57C306.95 184.1 306.68 184.75 306.5 185.53C306.33 186.31 306.24 187.19 306.24 188.17V197.86H302.5L302.51 197.87Z" fill="#0F0F0F"/>
<path d="M332.09 172.33C332.51 172.7 332.71 173.19 332.71 173.8C332.71 174.09 332.65 174.36 332.54 174.61C332.43 174.85 332.28 175.06 332.1 175.23C331.92 175.4 331.69 175.54 331.42 175.63C331.15 175.73 330.86 175.78 330.54 175.78C329.93 175.78 329.41 175.6 329 175.25C328.58 174.9 328.38 174.41 328.38 173.8C328.38 173.48 328.44 173.19 328.55 172.94C328.66 172.68 328.81 172.47 328.99 172.3C329.17 172.13 329.4 172 329.67 171.91C329.94 171.82 330.23 171.78 330.55 171.78C331.16 171.78 331.67 171.96 332.09 172.33ZM328.57 178.86H332.5V197.87H328.57V178.86Z" fill="#0F0F0F"/>
<path d="M348.53 182.09C347.72 182.41 347.03 182.85 346.46 183.43C345.88 184.01 345.44 184.7 345.12 185.52C344.8 186.34 344.64 187.25 344.64 188.25C344.64 189.25 344.8 190.16 345.12 190.98C345.44 191.8 345.88 192.5 346.46 193.09C347.03 193.68 347.73 194.14 348.55 194.47C349.37 194.8 350.27 194.97 351.25 194.97C352.3 194.97 353.31 194.79 354.26 194.42C355.21 194.05 356.07 193.53 356.83 192.84L358.67 195.67C357.69 196.6 356.56 197.31 355.28 197.8C354 198.29 352.62 198.53 351.15 198.53C349.68 198.53 348.29 198.28 347.04 197.78C345.79 197.28 344.72 196.58 343.83 195.69C342.94 194.8 342.24 193.73 341.74 192.48C341.24 191.23 340.99 189.86 340.99 188.37C340.99 186.88 341.24 185.51 341.74 184.28C342.24 183.04 342.94 181.98 343.83 181.09C344.72 180.2 345.81 179.5 347.08 179C348.35 178.5 349.73 178.25 351.23 178.25C352.55 178.25 353.77 178.44 354.9 178.82C356.03 179.2 357.02 179.74 357.87 180.45C358.73 181.16 359.44 182.02 360 183.04C360.56 184.06 360.94 185.19 361.14 186.43L343.78 191.75L343.08 188.92L358.79 184.15L357.62 186.28C357.45 185.57 357.17 184.93 356.79 184.35C356.41 183.78 355.94 183.29 355.38 182.88C354.82 182.48 354.19 182.16 353.49 181.94C352.79 181.72 352.04 181.61 351.23 181.61C350.25 181.61 349.36 181.77 348.55 182.09H348.53Z" fill="#0F0F0F"/>
<path d="M383.14 178.99C384.39 179.49 385.45 180.21 386.33 181.16C387.21 182.1 387.88 183.25 388.35 184.59C388.81 185.94 389.05 187.44 389.05 189.1V197.87H385.12V188.91C385.12 187.78 384.97 186.79 384.68 185.94C384.39 185.08 383.98 184.36 383.45 183.76C382.92 183.16 382.28 182.71 381.51 182.4C380.74 182.09 379.86 181.94 378.89 181.94C377.92 181.94 377.04 182.09 376.27 182.4C375.5 182.71 374.85 183.16 374.33 183.76C373.8 184.36 373.4 185.09 373.12 185.94C372.84 186.8 372.7 187.79 372.7 188.91V197.87H368.88V189.1C368.88 187.41 369.11 185.9 369.58 184.57C370.04 183.24 370.71 182.1 371.58 181.16C372.45 180.22 373.5 179.5 374.74 178.99C375.98 178.49 377.38 178.24 378.94 178.24C380.5 178.24 381.91 178.49 383.16 178.99H383.14Z" fill="#0F0F0F"/>
</g>
<defs>
<clipPath id="clip0_6288_50903">
<rect width="389" height="198" fill="white"/>
</clipPath>
</defs>
</svg>
